<svg version="1.1" style="width: 700px; height: 135px;" class=""><!-- document: undefined/undefined --><defs><filter id="Gaussian_Blur"><fegaussianblur in="SourceGraphic" stddeviation="2"></fegaussianblur></filter><marker id="drag_arrow" refX="5" refY="2.5" markerWidth="5" markerHeight="5" orient="auto" markerUnits="strokeWidth" class="drag_fill"><polyline points="0,0 5,2.5 0,5 0.2,2.5"></polyline></marker><marker id="arrow_triangle_5_000000" refX="5" refY="2.5" markerWidth="5" markerHeight="5" orient="auto" markerUnits="strokeWidth" fill="#000000"><polyline points="0,0 5,2.5 0,5 0.4166666666666667,2.5"></polyline></marker></defs><g class="background"><rect x="0" y="3.5" width="700" height="74.5" class="background0"></rect><rect x="0" y="78" width="700" height="58.5" class="background1"></rect></g><g class="glow"></g><g class="highlight"><rect x="24.5" y="60.5" width="10.59423828125" height="14.5" fill="#fef8cc" rx="3" ry="3"></rect><rect x="68.89923095703125" y="58.5" width="144.09228515625" height="18.5" fill="#fef8cc" rx="3" ry="3"></rect><rect x="69.89923095703125" y="60.5" width="83.357421875" height="14.5" fill="#fef8cc" rx="3" ry="3"></rect><rect x="66.87297821044922" y="119" width="24.857421875" height="14.5" fill="#fef8cc" rx="3" ry="3"></rect></g><g class="text"><text x="0" y="0"><tspan x="24.5" y="72.5" data-chunk-id="0">It </tspan><tspan x="40.67999267578125" y="72.5" data-chunk-id="1" class="">was </tspan><tspan x="69.89923095703125" y="72.5" data-chunk-id="2" class="">Jessie Bear's birthday</tspan><tspan x="211.99151611328125" y="72.5" data-chunk-id="3">. </tspan></text><text x="0" y="0"><tspan x="66.87297821044922" y="131" data-chunk-id="4">She </tspan><tspan x="95.73040008544922" y="131" data-chunk-id="5">was </tspan><tspan x="124.94963836669922" y="131" data-chunk-id="6" class="">having </tspan><tspan x="172.57073211669922" y="131" data-chunk-id="7" class="">a </tspan><tspan x="184.37834930419922" y="131" data-chunk-id="8">party</tspan><tspan x="218.64934539794922" y="131" data-chunk-id="9">.</tspan></text></g><g transform="translate(0, 72)"><g></g><g transform="translate(24.5, 0)"><g></g><g class="span"><rect x="-0.5" y="-28" width="12.67999267578125" height="11" class="span_Mention span_default" fill="#ffe000" stroke="#665900" rx="2" ry="1" data-span-id="T4" data-fragment-id="0"></rect><text x="5.5" y="-19.5" fill="#000000">M</text><path d="M0,-12C0,-16 5.5,-12 5.5,-16C5.5,-12 10.59423828125,-16 10.59423828125,-12" class="curly" stroke="#665900"></path></g></g><g transform="translate(40.67999267578125, 0)"><g></g></g><g transform="translate(69.89923095703125, 0)"><g></g><g class="span"><rect x="48.5" y="-28" width="45.009971618652344" height="11" class="span_Mention span_default" fill="#ffe000" stroke="#665900" rx="2" ry="1" data-span-id="T3" data-fragment-id="0"></rect><text x="71.5" y="-19.5" fill="#000000">Mention</text><path d="M0,-12C0,-16 71.5,-12 71.5,-16C71.5,-12 142.09228515625,-16 142.09228515625,-12" class="curly" stroke="#665900"></path></g><g class="span"><rect x="19.5" y="-44" width="45.009971618652344" height="11" class="span_Mention span_default" fill="#ffe000" stroke="#665900" rx="2" ry="1" data-span-id="T1" data-fragment-id="0"></rect><text x="41.5" y="-35.5" fill="#000000">Mention</text><path d="M0,-28C0,-32 41.5,-28 41.5,-32C41.5,-28 83.357421875,-32 83.357421875,-28" class="curly" stroke="#665900"></path></g></g><g transform="translate(211.99151611328125, 0)"><g></g></g><g class="arcs"><g data-from="T1" data-to="T2" class=""><text x="416.2046012878418" y="-35.875" fill="#000000" data-arc-role="Coreference" data-arc-origin="T1" data-arc-target="T2" data-arc-ed="*0*1">Coref</text><path d="M403.5181121826172,-38.5L149.4092025756836,-38.5Q141.9092025756836,-38.5 134.4092025756836,-38.5" style="stroke: #000000" stroke-dasharray="3,3"></path><path d="M428.8910903930664,-38.5L698,-38.5" style="stroke: #000000" stroke-dasharray="3,3"></path></g><g data-from="T4" data-to="T3" class=""><text x="77.53961181640625" y="-51.875" fill="#000000" data-arc-role="Coreference" data-arc-origin="T4" data-arc-target="T3" data-arc-ed="*1*1" class="">Coref</text><path d="M64.85312271118164,-54.5L51.67999267578125,-54.5Q44.17999267578125,-54.5 36.67999267578125,-22.5" style="stroke: #000000" stroke-dasharray="3,3"></path><path d="M90.22610092163086,-54.5L103.39923095703125,-54.5Q110.89923095703125,-54.5 118.39923095703125,-22.5" style="stroke: #000000" stroke-dasharray="3,3"></path></g></g></g><g transform="translate(0, 131)"><g></g><g transform="translate(66.87297821044922, 0)"><g></g><g class="span"><rect x="6.5" y="-28" width="12.67999267578125" height="11" class="span_Mention span_default" fill="#ffe000" stroke="#665900" rx="2" ry="1" data-span-id="T2" data-fragment-id="0"></rect><text x="12.5" y="-19.5" fill="#000000">M</text><path d="M0,-12C0,-16 12.5,-12 12.5,-16C12.5,-12 24.857421875,-16 24.857421875,-12" class="curly" stroke="#665900"></path></g></g><g transform="translate(95.73040008544922, 0)"><g></g></g><g transform="translate(124.94963836669922, 0)"><g></g></g><g transform="translate(172.57073211669922, 0)"><g></g></g><g transform="translate(184.37834930419922, 0)"><g></g></g><g transform="translate(218.64934539794922, 0)"><g></g></g><g class="arcs"><g data-from="T1" data-to="T2" class=""><text x="46.68648910522461" y="-35.875" fill="#000000" data-arc-role="Coreference" data-arc-origin="T1" data-arc-target="T2" data-arc-ed="*0*1" class="">Coref</text><path d="M34,-38.5L20,-38.5" style="stroke: #000000" stroke-dasharray="3,3"></path><path d="M59.37297821044922,-38.5L60.37297821044922,-38.5Q66.87297821044922,-38.5 73.37297821044922,-22.5" style="stroke: #000000" stroke-dasharray="3,3"></path></g></g></g><path marker-end="url(#drag_arrow)" class="drag_stroke" fill="none" visibility="hidden"></path><g class="sentnum"><a xmlns:xlink="http://www.w3.org/1999/xlink" xlink:href="#undefined?focus=sent~1"><text x="18" y="72.5" data-sent="1">1</text></a><a xmlns:xlink="http://www.w3.org/1999/xlink" xlink:href="#undefined?focus=sent~2"><text x="18" y="131" data-sent="2">2</text></a><path d="M20,0L20,135"></path></g></svg>